<mxfile host="app.diagrams.net" modified="2020-06-13T05:43:58.417Z" agent="5.0 (Windows)" etag="ZFDov0uvdzwmV9grPi2u" version="13.2.3" type="github">
  <diagram id="C5RBs43oDa-KdzZeNtuy" name="Page-1">
    <mxGraphModel dx="868" dy="489" grid="1" gridSize="10" guides="1" tooltips="1" connect="1" arrows="1" fold="1" page="1" pageScale="1" pageWidth="827" pageHeight="1169" math="0" shadow="0">
      <root>
        <mxCell id="WIyWlLk6GJQsqaUBKTNV-0" />
        <mxCell id="WIyWlLk6GJQsqaUBKTNV-1" parent="WIyWlLk6GJQsqaUBKTNV-0" />
        <mxCell id="WIyWlLk6GJQsqaUBKTNV-3" value="&lt;font face=&quot;Times New Roman&quot;&gt;Mulai&lt;/font&gt;" style="rounded=1;whiteSpace=wrap;html=1;fontSize=12;glass=0;strokeWidth=1;shadow=0;" parent="WIyWlLk6GJQsqaUBKTNV-1" vertex="1">
          <mxGeometry x="160" y="80" width="120" height="40" as="geometry" />
        </mxCell>
        <mxCell id="dedGfwvwKOVRfC8kFVkt-8" value="" style="rounded=0;html=1;jettySize=auto;orthogonalLoop=1;fontSize=11;endArrow=block;endFill=0;endSize=8;strokeWidth=1;shadow=0;labelBackgroundColor=none;edgeStyle=orthogonalEdgeStyle;" parent="WIyWlLk6GJQsqaUBKTNV-1" edge="1">
          <mxGeometry relative="1" as="geometry">
            <mxPoint x="220" y="120" as="sourcePoint" />
            <mxPoint x="219.5" y="140" as="targetPoint" />
          </mxGeometry>
        </mxCell>
        <mxCell id="dedGfwvwKOVRfC8kFVkt-12" value="&lt;font face=&quot;Times New Roman&quot;&gt;Perumusan Masalah&lt;/font&gt;" style="rounded=0;whiteSpace=wrap;html=1;" parent="WIyWlLk6GJQsqaUBKTNV-1" vertex="1">
          <mxGeometry x="160" y="140" width="120" height="40" as="geometry" />
        </mxCell>
        <mxCell id="dedGfwvwKOVRfC8kFVkt-13" value="&lt;font face=&quot;Times New Roman&quot;&gt;Pembuatan geometri NACA 4412, rekontruksi sudut serang, dan Vortex Generator&lt;/font&gt;" style="rounded=0;whiteSpace=wrap;html=1;" parent="WIyWlLk6GJQsqaUBKTNV-1" vertex="1">
          <mxGeometry x="120" y="200" width="200" height="50" as="geometry" />
        </mxCell>
        <mxCell id="dedGfwvwKOVRfC8kFVkt-15" value="&lt;font face=&quot;Times New Roman&quot;&gt;Assembly Airfoil dengan Vortex Generator&lt;/font&gt;" style="rounded=0;whiteSpace=wrap;html=1;" parent="WIyWlLk6GJQsqaUBKTNV-1" vertex="1">
          <mxGeometry x="120" y="270" width="200" height="40" as="geometry" />
        </mxCell>
        <mxCell id="dedGfwvwKOVRfC8kFVkt-17" value="" style="rounded=0;html=1;jettySize=auto;orthogonalLoop=1;fontSize=11;endArrow=block;endFill=0;endSize=8;strokeWidth=1;shadow=0;labelBackgroundColor=none;edgeStyle=orthogonalEdgeStyle;" parent="WIyWlLk6GJQsqaUBKTNV-1" edge="1">
          <mxGeometry relative="1" as="geometry">
            <mxPoint x="220" y="120" as="sourcePoint" />
            <mxPoint x="219.5" y="140" as="targetPoint" />
          </mxGeometry>
        </mxCell>
        <mxCell id="dedGfwvwKOVRfC8kFVkt-20" value="" style="rounded=0;html=1;jettySize=auto;orthogonalLoop=1;fontSize=11;endArrow=block;endFill=0;endSize=8;strokeWidth=1;shadow=0;labelBackgroundColor=none;edgeStyle=orthogonalEdgeStyle;" parent="WIyWlLk6GJQsqaUBKTNV-1" edge="1">
          <mxGeometry relative="1" as="geometry">
            <mxPoint x="220" y="730" as="sourcePoint" />
            <mxPoint x="219.5" y="750" as="targetPoint" />
          </mxGeometry>
        </mxCell>
        <mxCell id="dedGfwvwKOVRfC8kFVkt-21" value="" style="rounded=0;html=1;jettySize=auto;orthogonalLoop=1;fontSize=11;endArrow=block;endFill=0;endSize=8;strokeWidth=1;shadow=0;labelBackgroundColor=none;edgeStyle=orthogonalEdgeStyle;" parent="WIyWlLk6GJQsqaUBKTNV-1" edge="1">
          <mxGeometry relative="1" as="geometry">
            <mxPoint x="220" y="180" as="sourcePoint" />
            <mxPoint x="219.5" y="200" as="targetPoint" />
          </mxGeometry>
        </mxCell>
        <mxCell id="dedGfwvwKOVRfC8kFVkt-22" value="" style="rounded=0;html=1;jettySize=auto;orthogonalLoop=1;fontSize=11;endArrow=block;endFill=0;endSize=8;strokeWidth=1;shadow=0;labelBackgroundColor=none;edgeStyle=orthogonalEdgeStyle;" parent="WIyWlLk6GJQsqaUBKTNV-1" edge="1">
          <mxGeometry relative="1" as="geometry">
            <mxPoint x="220" y="250" as="sourcePoint" />
            <mxPoint x="219.5" y="270" as="targetPoint" />
          </mxGeometry>
        </mxCell>
        <mxCell id="dedGfwvwKOVRfC8kFVkt-23" value="&lt;div&gt;Masukkan batas operasi :&lt;/div&gt;&lt;div&gt;&lt;br&gt;&lt;/div&gt;&lt;div&gt;Pemilihan external flow, fliuda adalah udara, kecepatan udara 90m/s dari sumbu x, global goals max pada normal pressure (x) dan normal pressure (y).&lt;br&gt;&lt;/div&gt;" style="rounded=0;whiteSpace=wrap;html=1;" parent="WIyWlLk6GJQsqaUBKTNV-1" vertex="1">
          <mxGeometry x="120" y="330" width="200" height="120" as="geometry" />
        </mxCell>
        <mxCell id="dedGfwvwKOVRfC8kFVkt-24" value="" style="rounded=0;html=1;jettySize=auto;orthogonalLoop=1;fontSize=11;endArrow=block;endFill=0;endSize=8;strokeWidth=1;shadow=0;labelBackgroundColor=none;edgeStyle=orthogonalEdgeStyle;" parent="WIyWlLk6GJQsqaUBKTNV-1" edge="1">
          <mxGeometry relative="1" as="geometry">
            <mxPoint x="220" y="310" as="sourcePoint" />
            <mxPoint x="219.5" y="330" as="targetPoint" />
          </mxGeometry>
        </mxCell>
        <mxCell id="xh9AoII8tTs9re3ZHvOG-2" value="" style="rounded=0;html=1;jettySize=auto;orthogonalLoop=1;fontSize=11;endArrow=block;endFill=0;endSize=8;strokeWidth=1;shadow=0;labelBackgroundColor=none;edgeStyle=orthogonalEdgeStyle;" edge="1" parent="WIyWlLk6GJQsqaUBKTNV-1">
          <mxGeometry relative="1" as="geometry">
            <mxPoint x="220" y="450" as="sourcePoint" />
            <mxPoint x="219.5" y="470" as="targetPoint" />
          </mxGeometry>
        </mxCell>
        <mxCell id="xh9AoII8tTs9re3ZHvOG-3" value="Proses Iterasi" style="rounded=0;whiteSpace=wrap;html=1;" vertex="1" parent="WIyWlLk6GJQsqaUBKTNV-1">
          <mxGeometry x="120" y="470" width="200" height="40" as="geometry" />
        </mxCell>
        <mxCell id="xh9AoII8tTs9re3ZHvOG-5" value="" style="rounded=0;html=1;jettySize=auto;orthogonalLoop=1;fontSize=11;endArrow=block;endFill=0;endSize=8;strokeWidth=1;shadow=0;labelBackgroundColor=none;edgeStyle=orthogonalEdgeStyle;" edge="1" parent="WIyWlLk6GJQsqaUBKTNV-1">
          <mxGeometry relative="1" as="geometry">
            <mxPoint x="220" y="510" as="sourcePoint" />
            <mxPoint x="219.5" y="530" as="targetPoint" />
          </mxGeometry>
        </mxCell>
        <mxCell id="xh9AoII8tTs9re3ZHvOG-6" value="&lt;div&gt;Post processing :&lt;/div&gt;&lt;div&gt;Kontur kecepatan,&lt;/div&gt;&lt;div&gt; plot cut plot untuk hasil lift&lt;br&gt;&lt;/div&gt;" style="shape=parallelogram;perimeter=parallelogramPerimeter;whiteSpace=wrap;html=1;" vertex="1" parent="WIyWlLk6GJQsqaUBKTNV-1">
          <mxGeometry x="120" y="530" width="200" height="80" as="geometry" />
        </mxCell>
        <mxCell id="xh9AoII8tTs9re3ZHvOG-8" value="" style="rounded=0;html=1;jettySize=auto;orthogonalLoop=1;fontSize=11;endArrow=block;endFill=0;endSize=8;strokeWidth=1;shadow=0;labelBackgroundColor=none;edgeStyle=orthogonalEdgeStyle;" edge="1" parent="WIyWlLk6GJQsqaUBKTNV-1">
          <mxGeometry relative="1" as="geometry">
            <mxPoint x="220" y="610" as="sourcePoint" />
            <mxPoint x="219.5" y="630" as="targetPoint" />
          </mxGeometry>
        </mxCell>
        <mxCell id="xh9AoII8tTs9re3ZHvOG-9" value="Analisa data" style="rounded=0;whiteSpace=wrap;html=1;" vertex="1" parent="WIyWlLk6GJQsqaUBKTNV-1">
          <mxGeometry x="120" y="630" width="200" height="40" as="geometry" />
        </mxCell>
        <mxCell id="xh9AoII8tTs9re3ZHvOG-10" value="" style="rounded=0;html=1;jettySize=auto;orthogonalLoop=1;fontSize=11;endArrow=block;endFill=0;endSize=8;strokeWidth=1;shadow=0;labelBackgroundColor=none;edgeStyle=orthogonalEdgeStyle;" edge="1" parent="WIyWlLk6GJQsqaUBKTNV-1">
          <mxGeometry relative="1" as="geometry">
            <mxPoint x="220" y="670" as="sourcePoint" />
            <mxPoint x="219.5" y="690" as="targetPoint" />
          </mxGeometry>
        </mxCell>
        <mxCell id="xh9AoII8tTs9re3ZHvOG-11" value="Kesimpulan" style="rounded=0;whiteSpace=wrap;html=1;" vertex="1" parent="WIyWlLk6GJQsqaUBKTNV-1">
          <mxGeometry x="120" y="690" width="200" height="40" as="geometry" />
        </mxCell>
        <mxCell id="xh9AoII8tTs9re3ZHvOG-12" value="Selesai" style="rounded=1;whiteSpace=wrap;html=1;" vertex="1" parent="WIyWlLk6GJQsqaUBKTNV-1">
          <mxGeometry x="160" y="750" width="120" height="40" as="geometry" />
        </mxCell>
        <mxCell id="xh9AoII8tTs9re3ZHvOG-13" value="" style="endArrow=block;html=1;endFill=0;" edge="1" parent="WIyWlLk6GJQsqaUBKTNV-1">
          <mxGeometry width="50" height="50" relative="1" as="geometry">
            <mxPoint x="60" y="649.5" as="sourcePoint" />
            <mxPoint x="120" y="649.5" as="targetPoint" />
          </mxGeometry>
        </mxCell>
        <mxCell id="xh9AoII8tTs9re3ZHvOG-15" value="" style="endArrow=none;html=1;" edge="1" parent="WIyWlLk6GJQsqaUBKTNV-1">
          <mxGeometry width="50" height="50" relative="1" as="geometry">
            <mxPoint x="60" y="100" as="sourcePoint" />
            <mxPoint x="160" y="99.5" as="targetPoint" />
          </mxGeometry>
        </mxCell>
        <mxCell id="xh9AoII8tTs9re3ZHvOG-16" value="Studi Literatur" style="rounded=0;whiteSpace=wrap;html=1;" vertex="1" parent="WIyWlLk6GJQsqaUBKTNV-1">
          <mxGeometry x="10" y="370" width="100" height="30" as="geometry" />
        </mxCell>
        <mxCell id="xh9AoII8tTs9re3ZHvOG-17" value="" style="endArrow=none;html=1;" edge="1" parent="WIyWlLk6GJQsqaUBKTNV-1" target="xh9AoII8tTs9re3ZHvOG-16">
          <mxGeometry width="50" height="50" relative="1" as="geometry">
            <mxPoint x="60" y="650" as="sourcePoint" />
            <mxPoint x="60" y="100" as="targetPoint" />
          </mxGeometry>
        </mxCell>
        <mxCell id="xh9AoII8tTs9re3ZHvOG-18" value="" style="endArrow=block;html=1;endFill=0;" edge="1" parent="WIyWlLk6GJQsqaUBKTNV-1">
          <mxGeometry width="50" height="50" relative="1" as="geometry">
            <mxPoint x="60" y="100" as="sourcePoint" />
            <mxPoint x="59.5" y="370" as="targetPoint" />
          </mxGeometry>
        </mxCell>
      </root>
    </mxGraphModel>
  </diagram>
</mxfile>
